<?xml version="1.0" encoding="UTF-8"?>
<svg version="1.1" xmlns="http://www.w3.org/2000/svg" width="932" height="1003">
<path d="M0 0 C307.56 0 615.12 0 932 0 C932 330.99 932 661.98 932 1003 C624.44 1003 316.88 1003 0 1003 C0 672.01 0 341.02 0 0 Z " fill="#FEFEFE" transform="translate(0,0)"/>
<path d="M0 0 C3.16973576 1.50238691 6.05776701 3.40996213 9 5.3125 C41.57263526 25.51083768 78.90788915 40.01852324 117.6328125 40.203125 C119.11235916 40.21364647 119.11235916 40.21364647 120.62179565 40.22438049 C123.78957738 40.24180163 126.95717211 40.24823384 130.125 40.25 C131.20845703 40.25067474 132.29191406 40.25134949 133.40820312 40.25204468 C147.84724174 40.23773509 161.90624815 39.97837004 176.16162109 37.49169922 C179.25479843 36.95586065 182.35350075 36.47603474 185.45703125 36.00390625 C190.63912331 35.2114594 195.81847596 34.40313173 200.99609375 33.58203125 C204.33065778 33.05423563 207.66531156 32.52700898 211 32 C212.53059052 31.75802887 212.53059052 31.75802887 214.09210205 31.51116943 C309.57216777 16.43796974 309.57216777 16.43796974 343.8125 16.5 C344.69195282 16.50127899 345.57140564 16.50255798 346.47750854 16.50387573 C364.61306298 16.59851841 382.58116327 18.13133357 400.375 21.6875 C401.35066422 21.87916748 401.35066422 21.87916748 402.34603882 22.07470703 C413.95191984 24.367852 425.21794722 27.40675066 436.43798828 31.14746094 C438.96132743 31.98713126 441.49242879 32.79760244 444.02734375 33.6015625 C451.17428118 35.89035595 458.15405989 38.28593243 464.9296875 41.5390625 C467.42056651 42.72428992 469.91938988 43.85407253 472.4453125 44.9609375 C496.34768382 55.45753419 518.61936478 67.97637227 539.41210938 83.81298828 C540.87903322 84.9095725 542.38354135 85.95539139 543.890625 86.99609375 C544.71046875 87.57488281 545.5303125 88.15367187 546.375 88.75 C547.06335938 89.21921875 547.75171875 89.6884375 548.4609375 90.171875 C550.93999254 93.11653936 551.03876337 95.17405583 551 99 C549.71829472 102.22922152 547.8919353 105.03328751 546 107.9375 C545.18946167 109.23252441 545.18946167 109.23252441 544.36254883 110.55371094 C543.19593147 112.4138 542.02089652 114.26863086 540.83837891 116.11865234 C539.0000004 118.99999937 537.18946724 121.89702855 535.38671875 124.80078125 C532.9025798 128.8006045 530.40596263 132.79214122 527.8984375 136.77734375 C525.18995864 141.08716097 522.51188347 145.41420311 519.8515625 149.75390625 C518.83703003 151.40084473 518.83703003 151.40084473 517.80200195 153.08105469 C516.50280883 155.19126701 515.20940736 157.30505914 513.92260742 159.42285156 C513.33584229 160.37256836 512.74907715 161.32228516 512.14453125 162.30078125 C511.63253174 163.13778564 511.12053223 163.97479004 510.59301758 164.8371582 C508.21751036 168.06238708 506.21693619 169.78595732 502.24609375 170.484375 C497.74086499 169.81211463 494.81199522 167.74154587 491.0625 165.25 C444.34266195 135.52096329 389.33556938 117.03955944 334 114 C333.23268555 113.95472168 332.46537109 113.90944336 331.67480469 113.86279297 C313.73231249 112.93015799 296.01970326 117.00486322 282.0612793 128.96166992 C273.21803399 136.96691576 265.8408666 146.72502031 264.83984375 158.95703125 C264.40175104 169.83315886 268.53230405 179.95613824 275.81640625 188.0078125 C288.08814371 199.46143413 302.83949035 199.9982059 318.8125 201.375 C338.3140072 203.15006647 357.29500674 206.10632191 376 212 C377.0813623 212.33773437 378.16272461 212.67546875 379.27685547 213.0234375 C443.58378709 233.29134694 443.58378709 233.29134694 454 246 C454.07414149 252.54916481 450.9266817 256.96623917 447.4375 262.3125 C446.24786797 264.18306619 445.0591058 266.05418579 443.87109375 267.92578125 C442.92532471 269.40425537 442.92532471 269.40425537 441.96044922 270.91259766 C438.57926804 276.23743167 435.29568105 281.62199894 432 287 C430.6488462 289.19556407 429.29728618 291.3908782 427.9453125 293.5859375 C425.39240645 297.73331644 422.84603609 301.88459324 420.3046875 306.0390625 C419.1615538 307.90110028 418.01832956 309.76308247 416.875 311.625 C416.36710938 312.45902344 415.85921875 313.29304688 415.3359375 314.15234375 C406.73177083 328.13411458 406.73177083 328.13411458 403 330 C398.51282792 330.33551881 395.69639718 329.70800178 391.71875 327.65625 C390.72262695 327.15544922 389.72650391 326.65464844 388.70019531 326.13867188 C387.64413086 325.59791016 386.58806641 325.05714844 385.5 324.5 C373.92111497 318.75296477 362.24584452 314.10205629 350 310 C348.83855469 309.59265625 347.67710937 309.1853125 346.48046875 308.765625 C330.77628177 303.5241762 313.78718779 300.90861219 297.25390625 300.76171875 C296.33758926 300.75201553 295.42127228 300.74231232 294.47718811 300.73231506 C291.50558033 300.70739536 288.53420195 300.69477525 285.5625 300.6875 C284.54267029 300.68488159 283.52284058 300.68226318 282.47210693 300.67956543 C263.70813146 300.67442813 245.52678212 302.11871564 227 305 C225.84838379 305.17611816 224.69676758 305.35223633 223.51025391 305.53369141 C216.65601227 306.59660573 209.82630749 307.77198 203 309 C201.50932235 309.26030717 200.01844838 309.51949364 198.52734375 309.77734375 C192.7644354 310.77804417 187.00780773 311.80493515 181.26171875 312.8984375 C114.25063594 325.56838392 44.13961108 331.31712118 -22 311 C-22.66 310.79938965 -23.32 310.5987793 -24 310.39208984 C-27.6554139 309.26623011 -31.27166413 308.04656733 -34.87304688 306.75878906 C-36.41345793 306.20924848 -37.95683013 305.66798517 -39.50195312 305.13183594 C-68.86398858 294.90024746 -97.57525644 280.97962496 -123 263 C-123.75990234 262.4632666 -124.51980469 261.9265332 -125.30273438 261.37353516 C-133.49224226 255.55043326 -141.62601342 249.6294867 -149.1875 243 C-150.12980469 242.175 -151.07210937 241.35 -152.04296875 240.5 C-154 238 -154 238 -154.63671875 235.2734375 C-153.69037392 230.40818005 -151.25713549 226.77642396 -148.625 222.625 C-148.0777124 221.73868896 -147.5304248 220.85237793 -146.96655273 219.93920898 C-145.32358092 217.28473717 -143.66346002 214.64166622 -142 212 C-141.14351966 210.62432721 -140.28795884 209.24808122 -139.43359375 207.87109375 C-137.83442205 205.29854165 -136.22679727 202.73154639 -134.61328125 200.16796875 C-132.18118524 196.2988525 -129.78045762 192.41083461 -127.38208008 188.52075195 C-122.09129152 179.94389696 -116.75978173 171.39317976 -111.375 162.875 C-110.78299805 161.93253418 -110.19099609 160.99006836 -109.58105469 160.01904297 C-109.02579102 159.14393066 -108.47052734 158.26881836 -107.8984375 157.3671875 C-107.41036621 156.59487793 -106.92229492 155.82256836 -106.41943359 155.02685547 C-104.12838591 151.75539385 -102.86845572 150.22568786 -98.93359375 149.203125 C-92.83667766 149.49064004 -88.89066081 155.60171668 -85.0625 159.75 C-72.47435409 172.93979133 -58.91837438 183.17600242 -43 192 C-42.21496094 192.43699219 -41.42992187 192.87398437 -40.62109375 193.32421875 C-8.56203828 211.01368212 37.40093274 230.83420861 74.76293945 220.51513672 C90.82303488 215.34133524 105.17520225 205.69776911 113.31640625 190.55078125 C117.08458275 181.76712245 118.07846047 171.22712612 114.7421875 162.14453125 C110.02514032 151.19832186 102.62607685 144.44790255 91.71875 139.953125 C86.13292808 137.99487709 80.51385631 137.19683261 74.6640625 136.4296875 C40.22091562 131.80956101 5.190158 118.49821358 -23 98 C-24.00160156 97.28199219 -25.00320312 96.56398438 -26.03515625 95.82421875 C-32.73124918 90.92278031 -38.93411034 85.65558268 -45 80 C-45.57105469 79.52820313 -46.14210938 79.05640625 -46.73046875 78.5703125 C-49.24870692 76.41182264 -49.96993597 75.21177845 -50.44140625 71.890625 C-49.85218182 66.69710704 -47.71185266 63.63120139 -44.8125 59.375 C-43.70187633 57.68311069 -42.59254627 55.99037163 -41.484375 54.296875 C-40.90751953 53.42482422 -40.33066406 52.55277344 -39.73632812 51.65429688 C-36.9287279 47.36236358 -34.24810223 42.99391249 -31.5625 38.625 C-30.48202978 36.87614208 -29.40129838 35.12744548 -28.3203125 33.37890625 C-26.62171349 30.62766146 -24.9235669 27.87613799 -23.22558594 25.12451172 C-21.46372554 22.2699913 -19.70063122 19.41623559 -17.9375 16.5625 C-17.40133057 15.69254395 -16.86516113 14.82258789 -16.31274414 13.92626953 C-7.19726599 -0.82604985 -7.19726599 -0.82604985 0 0 Z " fill="#BC1D23" transform="translate(252,253)"/>
<path d="M0 0 C2.23596433 0.00851379 4.46936334 -0.02039222 6.70507812 -0.05200195 C31.52256393 -0.17153044 56.58743704 9.6567253 74.86914062 26.44604492 C75.35479492 26.88400391 75.84044922 27.32196289 76.34082031 27.77319336 C88.59594009 38.92637559 97.22886771 51.81191344 102.86914062 67.44604492 C103.48789062 68.99098633 103.48789062 68.99098633 104.11914062 70.56713867 C111.64637298 92.75679239 108.16635815 120.13621321 98.11914062 140.88354492 C84.3948597 167.25132772 61.3007725 184.48134413 33.36914062 193.32104492 C14.23231478 199.34215542 -13.16569214 199.27997512 -32.13085938 192.44604492 C-32.8234082 192.20466797 -33.51595703 191.96329102 -34.22949219 191.71459961 C-59.80032784 182.65137431 -80.18898504 165.34286684 -93.13085938 141.44604492 C-103.22467428 120.00250265 -106.72315872 97.51909262 -100.13085938 74.44604492 C-99.875625 73.39803711 -99.62039063 72.3500293 -99.35742188 71.27026367 C-93.38010693 48.81420432 -76.61285751 28.69368544 -57.13085938 16.44604492 C-56.40125 15.9484668 -55.67164063 15.45088867 -54.91992188 14.93823242 C-49.68087897 11.52302015 -44.16944713 9.06909514 -38.38085938 6.75854492 C-37.67896484 6.47301758 -36.97707031 6.18749023 -36.25390625 5.89331055 C-24.39193934 1.33430076 -12.59265908 -0.07273441 0 0 Z " fill="#BC1D23" transform="translate(527.130859375,52.553955078125)"/>
<path d="M0 0 C50.49 0 100.98 0 153 0 C153 14.85 153 29.7 153 45 C119.67 45 86.34 45 52 45 C52 54.57 52 64.14 52 74 C82.36 74 112.72 74 144 74 C144 87.86 144 101.72 144 116 C113.64 116 83.28 116 52 116 C52 125.9 52 135.8 52 146 C85.99 146 119.98 146 155 146 C155 160.85 155 175.7 155 191 C136.51054082 191.13558635 118.02148586 191.24605115 99.53165531 191.31087303 C90.94597096 191.34177466 82.36061806 191.38388398 73.77514648 191.45263672 C66.28959835 191.51255252 58.80429032 191.551176 51.31850904 191.56453097 C47.35689937 191.57233434 43.39597643 191.59059518 39.43458748 191.63438034 C35.70059618 191.67531503 31.96756993 191.68762778 28.23337555 191.67864609 C26.22037398 191.68106615 24.2074759 191.71324545 22.19474792 191.746521 C15.26131624 191.69947671 10.50086204 190.97521361 4.76430416 186.97214699 C0.3728053 182.06331015 -0.37426902 176.77973302 -0.36076355 170.40065002 C-0.36332682 169.66779673 -0.3658901 168.93494344 -0.36853105 168.17988247 C-0.37344474 165.74151892 -0.35701665 163.30378433 -0.34057617 160.86547852 C-0.33972937 159.11077387 -0.34020607 157.35606816 -0.34190369 155.60136414 C-0.34276301 150.84977043 -0.3251474 146.09840478 -0.30418181 141.34686399 C-0.28540455 136.3767572 -0.28366374 131.40664496 -0.28010559 126.43650818 C-0.27078822 117.03021007 -0.24617857 107.62401678 -0.21605712 98.21776479 C-0.17622732 85.50331941 -0.16005575 72.78884528 -0.14255047 60.07435322 C-0.11435729 40.04949032 -0.05458565 20.02484862 0 0 Z " fill="#000000" transform="translate(671,625)"/>
<path d="M0 0 C50.49 0 100.98 0 153 0 C153 14.85 153 29.7 153 45 C119.67 45 86.34 45 52 45 C52 54.57 52 64.14 52 74 C82.36 74 112.72 74 144 74 C144 87.86 144 101.72 144 116 C113.64 116 83.28 116 52 116 C52 125.9 52 135.8 52 146 C85.99 146 119.98 146 155 146 C155 160.85 155 175.7 155 191 C136.51054082 191.13558635 118.02148586 191.24605115 99.53165531 191.31087303 C90.94597096 191.34177466 82.36061806 191.38388398 73.77514648 191.45263672 C66.28959835 191.51255252 58.80429032 191.551176 51.31850904 191.56453097 C47.35689937 191.57233434 43.39597643 191.59059518 39.43458748 191.63438034 C35.70059618 191.67531503 31.96756993 191.68762778 28.23337555 191.67864609 C26.22037398 191.68106615 24.2074759 191.71324545 22.19474792 191.746521 C15.26131624 191.69947671 10.50086204 190.97521361 4.76430416 186.97214699 C0.3728053 182.06331015 -0.37426902 176.77973302 -0.36076355 170.40065002 C-0.36332682 169.66779673 -0.3658901 168.93494344 -0.36853105 168.17988247 C-0.37344474 165.74151892 -0.35701665 163.30378433 -0.34057617 160.86547852 C-0.33972937 159.11077387 -0.34020607 157.35606816 -0.34190369 155.60136414 C-0.34276301 150.84977043 -0.3251474 146.09840478 -0.30418181 141.34686399 C-0.28540455 136.3767572 -0.28366374 131.40664496 -0.28010559 126.43650818 C-0.27078822 117.03021007 -0.24617857 107.62401678 -0.21605712 98.21776479 C-0.17622732 85.50331941 -0.16005575 72.78884528 -0.14255047 60.07435322 C-0.11435729 40.04949032 -0.05458565 20.02484862 0 0 Z " fill="#000000" transform="translate(484,625)"/>
<path d="M0 0 C20.08475398 15.1208414 20.08475398 15.1208414 22.08203125 24.3203125 C13.78869614 31.1296879 5.4904235 37.88008614 -3.15625 44.23828125 C-6.84055829 47.01584323 -10.35669568 49.98207844 -13.859375 52.984375 C-14.53871094 53.42523437 -15.21804688 53.86609375 -15.91796875 54.3203125 C-19.28824504 53.19688707 -19.84985683 52.40700039 -21.98046875 49.6953125 C-29.71726307 40.62570907 -40.09471859 34.87138245 -51.91796875 33.3203125 C-65.47401062 32.53707453 -75.05705885 34.07891705 -85.91796875 42.3203125 C-87.17480469 43.24650391 -87.17480469 43.24650391 -88.45703125 44.19140625 C-96.16390534 50.85846399 -101.44216726 62.28486238 -102.91796875 72.3203125 C-103.08260994 75.40473903 -103.10305221 78.48197956 -103.10546875 81.5703125 C-103.12383789 82.78267578 -103.12383789 82.78267578 -103.14257812 84.01953125 C-103.17441346 97.28425573 -98.89001621 109.91972317 -90.21484375 120.0625 C-80.36487894 129.7449484 -69.23453994 132.86623188 -55.81445312 132.81054688 C-38.28333106 132.21206561 -27.54808921 122.38747298 -15.91796875 110.3203125 C-8.60182043 114.72240174 -1.79051538 119.58699551 5 124.74804688 C11.22986093 129.47106764 17.61183035 133.93298449 24.08203125 138.3203125 C14.92189686 157.05695102 -4.95472035 170.01632425 -24.06640625 176.8515625 C-50.46339222 185.76747412 -79.55481259 184.64204169 -104.765625 172.5 C-112.53819698 168.60886101 -119.467713 164.19721218 -125.91796875 158.3203125 C-126.89507812 157.43601562 -127.8721875 156.55171875 -128.87890625 155.640625 C-143.19204232 142.24989606 -152.01984281 125.25345315 -156.91796875 106.3203125 C-157.14484375 105.44890625 -157.37171875 104.5775 -157.60546875 103.6796875 C-163.13207186 77.42832271 -157.49571044 49.74233421 -143.04296875 27.37890625 C-126.71834726 3.88225437 -103.65619388 -10.23404683 -75.82421875 -15.734375 C-50.07443777 -20.33154764 -21.51605641 -15.13785453 0 0 Z " fill="#010101" transform="translate(431.91796875,637.6796875)"/>
<path d="M0 0 C50.49 0 100.98 0 153 0 C153 15.51 153 31.02 153 47 C120 47 87 47 53 47 C53 57.56 53 68.12 53 79 C82.7 79 112.4 79 143 79 C143 93.52 143 108.04 143 123 C113.3 123 83.6 123 53 123 C53 145.44 53 167.88 53 191 C43.1309375 191.185625 43.1309375 191.185625 33.0625 191.375 C31.00394775 191.42962402 28.94539551 191.48424805 26.82446289 191.54052734 C10.74204109 191.79567703 10.74204109 191.79567703 4.52124023 186.98291016 C0.51680571 181.76319948 -0.37445889 176.8694168 -0.36076355 170.40065002 C-0.36332682 169.66779673 -0.3658901 168.93494344 -0.36853105 168.17988247 C-0.37344474 165.74151892 -0.35701665 163.30378433 -0.34057617 160.86547852 C-0.33972937 159.11077387 -0.34020607 157.35606816 -0.34190369 155.60136414 C-0.34276301 150.84977043 -0.3251474 146.09840478 -0.30418181 141.34686399 C-0.28540455 136.3767572 -0.28366374 131.40664496 -0.28010559 126.43650818 C-0.27078822 117.03021007 -0.24617857 107.62401678 -0.21605712 98.21776479 C-0.17622732 85.50331941 -0.16005575 72.78884528 -0.14255047 60.07435322 C-0.11435729 40.04949032 -0.05458565 20.02484862 0 0 Z " fill="#010101" transform="translate(98,625)"/>
<path d="M0 0 C5.31539794 1.94216463 9.55184367 5.09356036 12.1171875 10.2421875 C14.32007751 17.12378196 14.05644195 25.43733581 11.3125 32.125 C8.89051261 36.74567098 5.97790518 39.34069827 1 41 C-0.78782086 41.14391128 -2.58163868 41.22052009 -4.375 41.25 C-5.77878906 41.28867187 -5.77878906 41.28867187 -7.2109375 41.328125 C-10 41 -10 41 -15 38 C-15.33 43.94 -15.66 49.88 -16 56 C-18.31 56 -20.62 56 -23 56 C-23 37.85 -23 19.7 -23 1 C-20.69 1 -18.38 1 -16 1 C-15.67 1.99 -15.34 2.98 -15 4 C-14.195625 3.34 -13.39125 2.68 -12.5625 2 C-8.52165454 -0.68434414 -4.70536543 -0.69395677 0 0 Z " fill="#0E0E0E" transform="translate(666,923)"/>
<path d="M0 0 C2.31 0 4.62 0 7 0 C7 17.49 7 34.98 7 53 C4.69 53 2.38 53 0 53 C-0.33 52.01 -0.66 51.02 -1 50 C-1.598125 50.474375 -2.19625 50.94875 -2.8125 51.4375 C-7.43855391 54.74182422 -12.52828431 54.58991935 -18 54 C-22.52123037 51.9526504 -25.60578717 48.93518196 -28.08203125 44.671875 C-30.47025315 37.72062488 -30.38366704 28.10140222 -27.5 21.3125 C-24.93356658 17.25123168 -21.45942142 14.70970751 -17 13 C-10.04190152 11.64902899 -7.4928117 13.28982188 -1 17 C-0.67 11.39 -0.34 5.78 0 0 Z " fill="#0E0E0E" transform="translate(282,910)"/>
<path d="M0 0 C2.31 0 4.62 0 7 0 C7 17.49 7 34.98 7 53 C4.69 53 2.38 53 0 53 C-0.33 52.01 -0.66 51.02 -1 50 C-1.763125 50.66 -2.52625 51.32 -3.3125 52 C-7.84056774 55.01154149 -12.77186831 54.76357214 -18 54 C-22.92006067 51.67415314 -25.31231435 48.67856392 -28 44 C-29.19104332 40.42687005 -29.20528823 37.45446678 -29.25 33.6875 C-29.27578125 32.39199219 -29.3015625 31.09648438 -29.328125 29.76171875 C-28.90549732 24.9165943 -27.58696837 21.68593299 -24.24609375 18.13671875 C-23.64925781 17.65847656 -23.05242187 17.18023438 -22.4375 16.6875 C-21.83808594 16.19636719 -21.23867187 15.70523438 -20.62109375 15.19921875 C-17.76058648 13.08313265 -15.76749497 12.78876122 -12.25 12.6875 C-11.40953125 12.65011719 -10.5690625 12.61273437 -9.703125 12.57421875 C-7 13 -7 13 -1 17 C-0.67 11.39 -0.34 5.78 0 0 Z " fill="#0C0C0C" transform="translate(131,910)"/>
<path d="M0 0 C2.31 0 4.62 0 7 0 C7 17.16 7 34.32 7 52 C4.69 52 2.38 52 0 52 C-0.33 51.34 -0.66 50.68 -1 50 C-2.05767578 50.72316406 -2.05767578 50.72316406 -3.13671875 51.4609375 C-7.96454437 54.0559761 -12.67249591 53.96487784 -18 53 C-22.41556785 50.58772745 -25.24254613 47.80795547 -27.19140625 43.15625 C-28.99780255 36.10519584 -29.23954314 27.46866196 -26.16015625 20.72265625 C-23.75736605 17.15487686 -20.90089528 14.79585904 -17 13 C-10.45335134 11.77943839 -7.06062367 12.96968817 -1 16 C-0.67 10.72 -0.34 5.44 0 0 Z " fill="#090909" transform="translate(253,838)"/>
<path d="M0 0 C5.38697265 3.15927719 8.64594858 7.10972074 10.640625 13.09375 C11.48130547 21.65668112 11.10587162 29.13190772 5.640625 36.09375 C0.77259026 40.42214117 -5.15696784 40.78564019 -11.453125 40.53125 C-16.01799161 39.84406578 -19.12425891 38.39885658 -22.359375 35.09375 C-27.12748155 28.57824077 -27.32375759 20.87769515 -26.359375 13.09375 C-24.65206472 7.11816401 -21.36749215 3.61008757 -16.359375 0.09375 C-11.10193829 -1.6587289 -5.23639507 -2.01133056 0 0 Z " fill="#080808" transform="translate(521.359375,923.90625)"/>
<path d="M0 0 C5.65480771 2.10918873 9.21121479 5.6455324 12 11 C12.75 13.3125 12.75 13.3125 13 16 C13.06316406 16.64710938 13.12632812 17.29421875 13.19140625 17.9609375 C13.53487877 24.27639998 12.04969768 29.46868558 9 35 C5.506181 38.77710163 2.03281088 40.09244394 -3 41 C-8.94366882 41.17228026 -13.87709248 40.43929989 -18.52734375 36.55859375 C-23.09364396 31.72582509 -24.26338393 27.09471879 -24.5 20.5 C-24.27403745 13.99227861 -23.09377409 9.14902005 -18.46875 4.44140625 C-12.60470618 -0.63214147 -7.56116213 -0.83381237 0 0 Z " fill="#0C0C0C" transform="translate(408,851)"/>
<path d="M0 0 C12.87 0 25.74 0 39 0 C39 2.31 39 4.62 39 7 C28.77 7 18.54 7 8 7 C8 11.95 8 16.9 8 22 C17.24 22 26.48 22 36 22 C36 24.31 36 26.62 36 29 C26.76 29 17.52 29 8 29 C8 34.61 8 40.22 8 46 C18.23 46 28.46 46 39 46 C39 48.31 39 50.62 39 53 C26.13 53 13.26 53 0 53 C0 35.51 0 18.02 0 0 Z " fill="#101010" transform="translate(208,910)"/>
<path d="M0 0 C12.54 0 25.08 0 38 0 C38 2.31 38 4.62 38 7 C28.1 7 18.2 7 8 7 C8 11.95 8 16.9 8 22 C17.24 22 26.48 22 36 22 C36 24.31 36 26.62 36 29 C26.76 29 17.52 29 8 29 C8 34.61 8 40.22 8 46 C18.23 46 28.46 46 39 46 C39 48.31 39 50.62 39 53 C26.13 53 13.26 53 0 53 C0 35.51 0 18.02 0 0 Z " fill="#0F0F0F" transform="translate(560,910)"/>
<path d="M0 0 C3.23115581 2.48550447 4.01860753 3.99343209 5.4375 7.875 C5.80081295 12.33983663 5.71955744 16.77428107 5.625 21.25 C5.60469727 23.06951172 5.60469727 23.06951172 5.58398438 24.92578125 C5.54874582 27.90931206 5.49947525 30.89192458 5.4375 33.875 C6.7575 33.875 8.0775 33.875 9.4375 33.875 C9.480221 35.54111905 9.47813832 37.20882885 9.4375 38.875 C8.4375 39.875 8.4375 39.875 5.5625 40.0625 C2.4375 39.875 2.4375 39.875 -0.5625 37.875 C-0.5625 36.885 -0.5625 35.895 -0.5625 34.875 C-1.21992188 35.41640625 -1.21992188 35.41640625 -1.890625 35.96875 C-7.13598358 39.80681726 -11.38488802 40.58602323 -17.84765625 40.30078125 C-21.44247306 39.73698984 -23.23657311 38.66611227 -25.5625 35.875 C-28.08731154 32.38835549 -27.99724022 29.07748882 -27.5625 24.875 C-25.4668159 20.51597708 -23.29896902 18.10072929 -18.69921875 16.39453125 C-15.17475821 15.53757832 -11.62934558 15.29791552 -8.015625 15.0859375 C-5.42669583 14.95961549 -5.42669583 14.95961549 -2.5625 13.875 C-2.5625 11.895 -2.5625 9.915 -2.5625 7.875 C-6.49071547 5.25618969 -9.99693139 5.58512263 -14.5625 5.875 C-17.68724627 7.50973516 -17.68724627 7.50973516 -18.25 10 C-18.4046875 10.928125 -18.4046875 10.928125 -18.5625 11.875 C-20.8725 11.875 -23.1825 11.875 -25.5625 11.875 C-25.11036421 7.01454021 -24.03108739 4.34358739 -20.5625 0.875 C-14.14223455 -2.29645643 -6.73685694 -2.12742851 0 0 Z " fill="#0C0C0C" transform="translate(403.5625,924.125)"/>
<path d="M0 0 C3.47117846 1.85616701 5.38125122 3.59099121 6.73046875 7.2421875 C6.95751953 10.17480469 6.95751953 10.17480469 6.92578125 13.5390625 C6.91933594 14.74433594 6.91289063 15.94960938 6.90625 17.19140625 C6.88949219 18.44566406 6.87273438 19.69992187 6.85546875 20.9921875 C6.84644531 22.26191406 6.83742188 23.53164063 6.828125 24.83984375 C6.8045588 27.97414843 6.77165707 31.10807291 6.73046875 34.2421875 C8.05046875 34.2421875 9.37046875 34.2421875 10.73046875 34.2421875 C10.77318975 35.90830655 10.77110707 37.57601635 10.73046875 39.2421875 C9.73046875 40.2421875 9.73046875 40.2421875 6.98046875 40.5546875 C3.0536315 40.17710699 1.55700139 38.90245351 -1.26953125 36.2421875 C-2.19765625 36.9021875 -3.12578125 37.5621875 -4.08203125 38.2421875 C-8.92906524 41.0062802 -13.83305888 41.09792852 -19.26953125 40.2421875 C-22.27150589 38.44100272 -23.72119491 37.33886018 -25.26953125 34.2421875 C-25.86852639 28.92824489 -26.25911067 24.66834607 -23.14453125 20.1796875 C-18.25084288 16.88176708 -13.17339387 15.9427393 -7.39453125 15.1171875 C-6.24210938 14.94960938 -5.0896875 14.78203125 -3.90234375 14.609375 C-2.59910156 14.42761719 -2.59910156 14.42761719 -1.26953125 14.2421875 C-1.59953125 11.9321875 -1.92953125 9.6221875 -2.26953125 7.2421875 C-4.91393764 6.3607187 -6.55013877 6.08043932 -9.26953125 6.0546875 C-9.95015625 6.04050781 -10.63078125 6.02632812 -11.33203125 6.01171875 C-13.59567257 6.13278339 -13.59567257 6.13278339 -16.26953125 8.2421875 C-16.99335592 10.30143889 -16.99335592 10.30143889 -17.26953125 12.2421875 C-19.57953125 12.2421875 -21.88953125 12.2421875 -24.26953125 12.2421875 C-23.99643189 8.32776337 -23.51960912 6.5395774 -20.95703125 3.4921875 C-14.91649827 -1.5650029 -7.56856196 -2.52719625 0 0 Z " fill="#0A0A0A" transform="translate(805.26953125,923.7578125)"/>
<path d="M0 0 C2.52714237 1.81435863 3.83585572 3.09825979 5.4375 5.75 C5.86987305 8.68261719 5.86987305 8.68261719 5.94921875 12.046875 C5.98466797 13.25214844 6.02011719 14.45742188 6.05664062 15.69921875 C6.09047852 17.58060547 6.09047852 17.58060547 6.125 19.5 C6.15916016 20.76972656 6.19332031 22.03945313 6.22851562 23.34765625 C6.31099001 26.48168274 6.38014484 29.61542955 6.4375 32.75 C7.4275 33.08 8.4175 33.41 9.4375 33.75 C9.480221 35.41611905 9.47813832 37.08382885 9.4375 38.75 C8.4375 39.75 8.4375 39.75 5.5625 40 C2.4375 39.75 2.4375 39.75 0.5625 38.375 C-0.5625 36.75 -0.5625 36.75 -0.5625 34.75 C-1.9546875 35.7090625 -1.9546875 35.7090625 -3.375 36.6875 C-8.70444057 40.13596154 -13.36961067 40.30399649 -19.5625 39.75 C-23.50031287 38.10924464 -24.95744266 36.62142587 -26.5625 32.75 C-27.3282569 28.64337451 -27.54763024 24.66067598 -25.59375 20.87109375 C-19.93741876 14.86876352 -10.29701413 14.74182746 -2.5625 13.75 C-2.3122843 10.83365871 -2.3122843 10.83365871 -2.5625 7.75 C-5.70861253 5.65259164 -6.47438078 5.49671781 -10.0625 5.5625 C-11.22265625 5.57216797 -11.22265625 5.57216797 -12.40625 5.58203125 C-14.74598849 5.6769435 -14.74598849 5.6769435 -17.5625 6.75 C-17.8925 8.4 -18.2225 10.05 -18.5625 11.75 C-20.5425 11.75 -22.5225 11.75 -24.5625 11.75 C-24.875 9.0625 -24.875 9.0625 -24.5625 5.75 C-18.10392493 -2.14381398 -9.49479302 -3.33150632 0 0 Z " fill="#080808" transform="translate(481.5625,924.25)"/>
<path d="M0 0 C2.80227467 2.0837427 3.89802323 3.68759603 5.4375 6.8125 C5.77807617 9.7668457 5.77807617 9.7668457 5.73046875 12.98828125 C5.7159668 14.72368164 5.7159668 14.72368164 5.70117188 16.49414062 C5.67603516 17.69232422 5.65089844 18.89050781 5.625 20.125 C5.60469727 21.9512793 5.60469727 21.9512793 5.58398438 23.81445312 C5.54869261 26.81425345 5.49938481 29.81314975 5.4375 32.8125 C6.7575 32.8125 8.0775 32.8125 9.4375 32.8125 C9.480221 34.47861905 9.47813832 36.14632885 9.4375 37.8125 C8.4375 38.8125 8.4375 38.8125 5 39 C1.4375 38.8125 1.4375 38.8125 -0.5625 36.8125 C-0.5625 35.8225 -0.5625 34.8325 -0.5625 33.8125 C-1.0471875 34.16183594 -1.531875 34.51117187 -2.03125 34.87109375 C-6.99422642 38.24019121 -10.51885071 39.8125 -16.5625 39.8125 C-21.26255382 38.34854881 -24.0073814 37.02357522 -26.5625 32.8125 C-27.22641339 29.40994386 -27.15979664 26.22483359 -26.5625 22.8125 C-23.13736536 18.24565382 -19.7042603 16.18700209 -14.14453125 15.21484375 C-12.90058594 15.06144531 -11.65664063 14.90804687 -10.375 14.75 C-6.14296892 14.57518613 -6.14296892 14.57518613 -2.5625 12.8125 C-2.52186168 11.14632885 -2.519779 9.47861905 -2.5625 7.8125 C-6.49071547 5.19368969 -9.99693139 5.52262263 -14.5625 5.8125 C-17.68724627 7.44723516 -17.68724627 7.44723516 -18.25 9.9375 C-18.4046875 10.865625 -18.4046875 10.865625 -18.5625 11.8125 C-20.5425 11.8125 -22.5225 11.8125 -24.5625 11.8125 C-24.875 9.125 -24.875 9.125 -24.5625 5.8125 C-18.07763149 -2.1134504 -9.54856192 -3.18285397 0 0 Z " fill="#0C0C0C" transform="translate(583.5625,852.1875)"/>
<path d="M0 0 C3.87990422 1.20410821 5.31697655 2.03496448 7.63671875 5.3125 C9.66930977 10.81039664 9.31531733 16.0675051 9.1875 21.875 C9.16719727 23.62296875 9.16719727 23.62296875 9.14648438 25.40625 C9.11125821 28.27131118 9.06199715 31.13541377 9 34 C10.32 34 11.64 34 13 34 C13.042721 35.66611905 13.04063832 37.33382885 13 39 C12 40 12 40 8.6875 40.3125 C5 40 5 40 2.5625 38 C2.046875 37.34 1.53125 36.68 1 36 C0.175 36.639375 -0.65 37.27875 -1.5 37.9375 C-5.18186815 40.36320137 -8.59529022 41.22108582 -13 41 C-17.70005382 39.53604881 -20.4448814 38.21107522 -23 34 C-23.66391339 30.59744386 -23.59729664 27.41233359 -23 24 C-19.57486536 19.43315382 -16.1417603 17.37450209 -10.58203125 16.40234375 C-9.33808594 16.24894531 -8.09414063 16.09554687 -6.8125 15.9375 C-2.58046892 15.76268613 -2.58046892 15.76268613 1 14 C1.04063832 12.33382885 1.042721 10.66611905 1 9 C-2.92821547 6.38118969 -6.43443139 6.71012263 -11 7 C-14.12474627 8.63473516 -14.12474627 8.63473516 -14.6875 11.125 C-14.8421875 12.053125 -14.8421875 12.053125 -15 13 C-17.31 13 -19.62 13 -22 13 C-21.72387317 9.04218214 -21.25946652 7.30043492 -18.625 4.25 C-12.58472849 -0.92737558 -7.71830504 -0.59809744 0 0 Z " fill="#0E0E0E" transform="translate(368,851)"/>
<path d="M0 0 C5.23869834 2.57172464 8.43710982 6.18679767 11.25 11.25 C12 14 12 14 12 23 C2.76 23 -6.48 23 -16 23 C-13.75863873 30.65516421 -13.75863873 30.65516421 -10 34 C-6.953648 34.62273494 -4.06173605 34.51028934 -1 34 C1.80684139 31.91286153 3.05450926 29.91823611 5 27 C8.125 26.8125 8.125 26.8125 11 27 C10.61104749 32.44533513 8.7851047 35.12686961 5 39 C-0.0537875 42.27994156 -6.22689609 41.57515357 -12 41 C-16.96029156 38.73741087 -19.34763619 35.71531343 -22 31 C-24.24724445 24.09563711 -24.0636751 14.51030958 -21 8 C-14.3809308 1.03034451 -9.61390342 -0.97906796 0 0 Z " fill="#0B0B0B" transform="translate(708,923)"/>
<path d="M0 0 C5.15174992 3.59424413 8.33365357 7.72115261 9.6875 13.875 C9.6875 16.515 9.6875 19.155 9.6875 21.875 C0.4475 21.875 -8.7925 21.875 -18.3125 21.875 C-16.43805779 30.56802969 -16.43805779 30.56802969 -12.3125 32.875 C-5.92458875 33.43424383 -5.92458875 33.43424383 -0.3125 30.875 C0.97004644 28.33729997 0.97004644 28.33729997 1.6875 25.875 C3.9975 25.875 6.3075 25.875 8.6875 25.875 C8.15200888 30.42667451 6.60134 33.34772 3.6875 36.875 C-1.97895311 40.344257 -7.76208258 40.78395687 -14.3125 39.875 C-17.8125 38.0625 -17.8125 38.0625 -20.3125 35.875 C-20.89 35.42125 -21.4675 34.9675 -22.0625 34.5 C-26.71186283 28.45582832 -25.83597727 20.04009511 -25.3125 12.875 C-24.46403248 8.55311858 -23.0844256 5.62713264 -19.875 2.5 C-13.33483975 -1.64741869 -7.48309303 -2.54142782 0 0 Z " fill="#0B0B0B" transform="translate(171.3125,924.125)"/>
<path d="M0 0 C3.70185997 1.45854868 5.82148412 3.07652686 7.82421875 6.46875 C8.20898438 9.27783203 8.20898438 9.27783203 8.23046875 12.4765625 C8.25238281 13.62769531 8.27429688 14.77882813 8.296875 15.96484375 C8.31516303 18.39192664 8.33339182 20.81900998 8.3515625 23.24609375 C8.37347656 24.39464844 8.39539063 25.54320312 8.41796875 26.7265625 C8.42505859 27.7798877 8.43214844 28.83321289 8.43945312 29.91845703 C8.56642578 30.76005371 8.69339844 31.60165039 8.82421875 32.46875 C9.81421875 33.12875 10.80421875 33.78875 11.82421875 34.46875 C12.01171875 37.09375 12.01171875 37.09375 11.82421875 39.46875 C5.42421875 39.96105769 5.42421875 39.96105769 2.38671875 37.46875 C1.87109375 36.80875 1.35546875 36.14875 0.82421875 35.46875 C-0.10390625 36.12875 -1.03203125 36.78875 -1.98828125 37.46875 C-6.84812202 40.22463532 -11.73243257 40.43463744 -17.17578125 39.46875 C-20.8411555 37.59676549 -22.85457272 35.4323756 -24.17578125 31.46875 C-24.8365742 25.63174559 -24.8365742 25.63174559 -23.19921875 22.75 C-19.0565703 17.56533568 -15.61455671 16.34759392 -9.13671875 15.58203125 C-8.40710938 15.50339844 -7.6775 15.42476562 -6.92578125 15.34375 C-6.18070313 15.25738281 -5.435625 15.17101562 -4.66796875 15.08203125 C-2.83800279 14.87088133 -1.00698246 14.66890455 0.82421875 14.46875 C0.22560133 12.11703869 -0.44502477 9.7828122 -1.17578125 7.46875 C-3.50264578 6.30531773 -5.02299538 6.26979012 -7.61328125 6.21875 C-8.78697266 6.18007813 -8.78697266 6.18007813 -9.984375 6.140625 C-12.71255623 6.54912272 -13.51994235 7.30147461 -15.17578125 9.46875 C-15.50578125 10.45875 -15.83578125 11.44875 -16.17578125 12.46875 C-18.15578125 12.46875 -20.13578125 12.46875 -22.17578125 12.46875 C-21.93579571 6.34911865 -21.93579571 6.34911865 -19.84375 3.92578125 C-13.78709669 -1.09932527 -7.66540176 -1.87162413 0 0 Z " fill="#080808" transform="translate(521.17578125,851.53125)"/>
<path d="M0 0 C3.82141561 1.42159476 5.73485429 3.60228144 8 7 C8.27124023 9.69555664 8.27124023 9.69555664 8.30859375 12.91015625 C8.33373047 14.06451172 8.35886719 15.21886719 8.38476562 16.40820312 C8.41997747 18.84825334 8.45121505 21.28836408 8.47851562 23.72851562 C8.50494141 24.88158203 8.53136719 26.03464844 8.55859375 27.22265625 C8.57204834 28.28234619 8.58550293 29.34203613 8.59936523 30.43383789 C8.79767944 31.70408813 8.79767944 31.70408813 9 33 C9.99 33.66 10.98 34.32 12 35 C12.1875 37.625 12.1875 37.625 12 40 C5.6 40.49230769 5.6 40.49230769 2.5625 38 C2.046875 37.34 1.53125 36.68 1 36 C0.401875 36.474375 -0.19625 36.94875 -0.8125 37.4375 C-5.83709574 41.02649696 -12.08081906 40.94363754 -18 40 C-20.95492366 38.1660971 -22.54756031 36.14388843 -24 33 C-24.61676489 29.02529292 -24.40752348 26.89655166 -22.75 23.25 C-18.66811683 18.00186449 -14.55187855 17.2687552 -8.25 16.3125 C-7.45722656 16.18294922 -6.66445313 16.05339844 -5.84765625 15.91992188 C-3.90005926 15.60314405 -1.95022139 15.30019783 0 15 C0 12.69 0 10.38 0 8 C-3.71255707 6.14372147 -7.9697692 6.27140779 -12 7 C-14.28239171 9.92321965 -14.28239171 9.92321965 -16 13 C-19.25 13.375 -19.25 13.375 -22 13 C-21.76001446 6.88036865 -21.76001446 6.88036865 -19.66796875 4.45703125 C-13.38999672 -0.7516998 -7.9568339 -0.71543828 0 0 Z " fill="#0A0A0A" transform="translate(291,851)"/>
<path d="M0 0 C6.39907379 2.21058913 9.04590845 6.0918169 12 12 C12 15.3 12 18.6 12 22 C3.09 22 -5.82 22 -15 22 C-13.12555779 30.69302969 -13.12555779 30.69302969 -9 33 C-5.95546509 33.48219153 -3.04708913 33.46284898 0 33 C2.50160818 31.12379387 3.61945652 29.76108697 5 27 C6.98 27 8.96 27 11 27 C10.73678471 30.77275246 10.24776305 32.68665262 7.875 35.6875 C3.16803828 39.47353443 -0.87305944 41.31102578 -6.9375 41.125 C-12.62094325 40.33539185 -16.53808851 37.52254614 -20 33 C-22.94816652 26.07277214 -23.33571636 17.70749764 -21.27734375 10.453125 C-16.8167404 0.84567163 -9.84671775 -0.76601057 0 0 Z " fill="#080808" transform="translate(700,851)"/>
<path d="M0 0 C4.72633915 2.14106717 7.29898625 4.60429429 9.703125 9.31640625 C10.992634 13.5073105 10.703125 16.71466974 10.703125 21.31640625 C1.463125 21.31640625 -7.776875 21.31640625 -17.296875 21.31640625 C-16.306875 24.61640625 -15.316875 27.91640625 -14.296875 31.31640625 C-11.39145595 32.28487927 -9.33050046 32.51223437 -6.296875 32.56640625 C-5.430625 32.5921875 -4.564375 32.61796875 -3.671875 32.64453125 C-1.25247372 32.50786643 -1.25247372 32.50786643 0.453125 30.98828125 C1.90870019 29.22435941 1.90870019 29.22435941 2.703125 26.31640625 C5.013125 26.31640625 7.323125 26.31640625 9.703125 26.31640625 C8.49568148 32.47436818 6.82328417 34.68962684 1.703125 38.31640625 C-2.71856595 40.52725173 -8.48382144 39.72677622 -13.296875 39.31640625 C-18.79288299 36.90587643 -20.77858418 33.53952796 -23.296875 28.31640625 C-25.30226662 21.66275591 -24.78599825 14.88841047 -22.421875 8.3984375 C-17.80022513 -0.15482424 -9.00514759 -2.68010345 0 0 Z " fill="#080808" transform="translate(818.296875,851.68359375)"/>
<path d="M0 0 C4.85221613 2.18349726 8.05493856 5.59782416 10.40625 10.3515625 C11.21875 13.7890625 11.21875 13.7890625 11.40625 16.3515625 C8.76625 16.3515625 6.12625 16.3515625 3.40625 16.3515625 C3.035 15.2584375 2.66375 14.1653125 2.28125 13.0390625 C1.02684846 10.17019972 0.41050887 9.35470595 -2.21875 7.4140625 C-7.89507546 5.62707115 -13.06915645 5.23081723 -18.46875 8.0390625 C-22.74559743 11.2039296 -24.56310553 14.2161099 -25.59375 19.3515625 C-26.39209904 28.40712158 -26.05117273 35.82670386 -20.59375 43.3515625 C-17.44830762 46.49700488 -14.4522036 46.60740817 -10.15625 46.8515625 C-6.57158781 46.7357726 -4.00775846 46.51333319 -1.09375 44.3515625 C1.91832283 40.7370751 3.04015101 37.82933141 4.40625 33.3515625 C6.71625 33.3515625 9.02625 33.3515625 11.40625 33.3515625 C12.04622443 38.47135792 10.68523524 41.33981313 7.8984375 45.45703125 C4.49093493 49.78331069 0.66378182 52.6016103 -4.59375 54.3515625 C-11.95383497 55.22462086 -18.55812632 54.92891469 -24.59375 50.3515625 C-31.06884245 44.52545426 -34.0492381 36.99195152 -34.75390625 28.3984375 C-35.08401106 20.1888744 -33.14696882 12.3779752 -28.05859375 5.8203125 C-25.54402106 3.29903429 -22.78310877 1.91615359 -19.59375 0.3515625 C-14.42800793 -2.23130853 -5.52863055 -1.38215764 0 0 Z " fill="#090909" transform="translate(480.59375,837.6484375)"/>
<path d="M0 0 C11.88 0 23.76 0 36 0 C36 2.31 36 4.62 36 7 C26.76 7 17.52 7 8 7 C8 11.95 8 16.9 8 22 C15.92 22 23.84 22 32 22 C32 24.31 32 26.62 32 29 C24.08 29 16.16 29 8 29 C8 36.59 8 44.18 8 52 C5.36 52 2.72 52 0 52 C0 34.84 0 17.68 0 0 Z " fill="#121212" transform="translate(104,838)"/>
<path d="M0 0 C4.6 3.45 4.6 3.45 6 6.25 C6.1875 9.5 6.1875 9.5 6 12.25 C3.1875 12.5625 3.1875 12.5625 0 12.25 C-1.6875 9.875 -1.6875 9.875 -3 7.25 C-6.7373856 4.7584096 -8.57331583 4.79206715 -13 5.25 C-15.75329021 7.04562405 -17.52627461 8.30254922 -19 11.25 C-19.14977039 13.49655587 -19.22150174 15.74863768 -19.25 18 C-19.27578125 19.21171875 -19.3015625 20.4234375 -19.328125 21.671875 C-18.97158224 25.55988885 -18.03921452 27.94370073 -16 31.25 C-12.93570224 32.78214888 -10.3834358 32.47938548 -7 32.25 C-3.55878802 30.79704383 -2.3342405 29.93439721 -0.6875 26.5625 C-0.3471875 25.4178125 -0.3471875 25.4178125 0 24.25 C2.31 24.25 4.62 24.25 7 24.25 C6.71339481 30.12540641 4.2006761 33.40445352 0 37.25 C-3.43498717 39.1310644 -4.99422503 39.25 -9 39.25 C-9 40.24 -9 41.23 -9 42.25 C-7.865625 42.394375 -6.73125 42.53875 -5.5625 42.6875 C-2 43.25 -2 43.25 -1 44.25 C-0.42376521 50.47333572 -0.42376521 50.47333572 -2.4375 53.1875 C-7.44422484 55.26345908 -12.8615594 54.69810599 -18 53.25 C-18 51.93 -18 50.61 -18 49.25 C-14.37 49.25 -10.74 49.25 -7 49.25 C-7 48.26 -7 47.27 -7 46.25 C-8.65 45.92 -10.3 45.59 -12 45.25 C-12 43.27 -12 41.29 -12 39.25 C-12.845625 39.20875 -13.69125 39.1675 -14.5625 39.125 C-19.04695949 37.98350122 -22.07816096 35.8420547 -25 32.25 C-28.11419585 25.05941491 -28.57405344 15.07053866 -26.125 7.5703125 C-20.77965784 -1.74886956 -9.69743331 -5.17744321 0 0 Z " fill="#0A0A0A" transform="translate(444,924.75)"/>
<path d="M0 0 C3.70452525 1.7061208 6.90000932 3.42375028 8.69140625 7.23046875 C8.87890625 10.48046875 8.87890625 10.48046875 8.69140625 13.23046875 C6.71140625 13.23046875 4.73140625 13.23046875 2.69140625 13.23046875 C2.44390625 12.26109375 2.19640625 11.29171875 1.94140625 10.29296875 C1.06056568 7.20704719 1.06056568 7.20704719 -0.93359375 6.35546875 C-1.71734375 6.31421875 -2.50109375 6.27296875 -3.30859375 6.23046875 C-3.93507813 6.16988281 -4.5615625 6.10929688 -5.20703125 6.046875 C-8.86400512 5.82256248 -10.69994609 5.79349095 -13.74609375 7.98046875 C-17.25510236 13.03344114 -16.80562809 19.30033493 -16.30859375 25.23046875 C-14.78989402 29.59983364 -14.78989402 29.59983364 -11.30859375 32.23046875 C-9.83191038 32.32573865 -8.35083918 32.36032834 -6.87109375 32.35546875 C-6.08863281 32.35804688 -5.30617188 32.360625 -4.5 32.36328125 C-2.12964028 32.31429423 -2.12964028 32.31429423 0.69140625 31.23046875 C1.91660889 28.22199457 1.91660889 28.22199457 2.69140625 25.23046875 C4.67140625 25.23046875 6.65140625 25.23046875 8.69140625 25.23046875 C8.44126756 29.48282655 8.12254027 31.70611656 5.37890625 35.04296875 C1.30452376 38.35932659 -1.01274492 39.52468257 -6.30859375 39.23046875 C-6.30859375 40.22046875 -6.30859375 41.21046875 -6.30859375 42.23046875 C-5.17421875 42.37484375 -4.03984375 42.51921875 -2.87109375 42.66796875 C0.69140625 43.23046875 0.69140625 43.23046875 1.69140625 44.23046875 C2.26764104 50.45380447 2.26764104 50.45380447 0.25390625 53.16796875 C-4.75281859 55.24392783 -10.17015315 54.67857474 -15.30859375 53.23046875 C-14.97859375 51.91046875 -14.64859375 50.59046875 -14.30859375 49.23046875 C-10.67859375 49.56046875 -7.04859375 49.89046875 -3.30859375 50.23046875 C-3.63859375 48.91046875 -3.96859375 47.59046875 -4.30859375 46.23046875 C-5.95859375 45.90046875 -7.60859375 45.57046875 -9.30859375 45.23046875 C-9.30859375 43.25046875 -9.30859375 41.27046875 -9.30859375 39.23046875 C-10.33984375 39.20984375 -11.37109375 39.18921875 -12.43359375 39.16796875 C-17.50275727 37.94155822 -19.56375441 35.54742969 -22.30859375 31.23046875 C-25.53471599 24.72317099 -25.40180304 16.68633445 -23.69140625 9.71484375 C-21.75459824 5.22419154 -18.85218377 2.41956551 -14.58203125 0.078125 C-9.67426292 -1.75174738 -4.94759334 -1.64919778 0 0 Z " fill="#0A0A0A" transform="translate(331.30859375,851.76953125)"/>
<path d="M0 0 C2.19544058 1.2047183 3.83719245 2.28661631 5.5390625 4.125 C6.5390625 7.9375 6.5390625 7.9375 6.5390625 11.125 C4.5590625 11.125 2.5790625 11.125 0.5390625 11.125 C0.4359375 10.485625 0.3328125 9.84625 0.2265625 9.1875 C-0.0003125 8.506875 -0.2271875 7.82625 -0.4609375 7.125 C-3.27321372 6.18757459 -5.04840594 5.99029156 -7.9609375 6 C-8.734375 5.99742187 -9.5078125 5.99484375 -10.3046875 5.9921875 C-12.64540767 6.04354187 -12.64540767 6.04354187 -15.4609375 7.125 C-15.05016298 10.09983292 -15.05016298 10.09983292 -13.4609375 13.125 C-10.73715888 14.31608632 -8.49626226 15.08052027 -5.6484375 15.75 C-0.35702984 17.07165476 3.48835478 18.22088932 7.5390625 22.125 C9.0938294 25.23453379 8.82550687 27.68766761 8.5390625 31.125 C6.22716184 35.57754943 4.02523946 37.94474313 -0.4609375 40.125 C-6.1226997 40.86003579 -13.09960826 41.57389392 -18.1484375 38.4375 C-21.35331007 35.23262743 -23.34080922 32.9269242 -23.6484375 28.3125 C-23.5865625 27.590625 -23.5246875 26.86875 -23.4609375 26.125 C-21.1509375 26.125 -18.8409375 26.125 -16.4609375 26.125 C-16.1721875 26.90875 -15.8834375 27.6925 -15.5859375 28.5 C-14.61181496 31.22171632 -14.61181496 31.22171632 -12.4609375 33.125 C-10.12689696 33.482148 -10.12689696 33.482148 -7.5234375 33.4375 C-6.21052734 33.46263672 -6.21052734 33.46263672 -4.87109375 33.48828125 C-2.43467505 33.28908931 -2.43467505 33.28908931 -0.58203125 31.91796875 C0.81883883 30.09273181 0.81883883 30.09273181 0.2265625 27.4375 C-0.0003125 26.674375 -0.2271875 25.91125 -0.4609375 25.125 C-1.64171875 24.81046875 -2.8225 24.4959375 -4.0390625 24.171875 C-5.59654811 23.7402826 -7.1538293 23.30795204 -8.7109375 22.875 C-9.48824219 22.67003906 -10.26554688 22.46507812 -11.06640625 22.25390625 C-15.53065818 20.99475827 -18.51323357 19.92358754 -21.4609375 16.125 C-23.07145305 12.9039689 -23.06262529 9.60810374 -22.4609375 6.125 C-16.75265837 -1.16891223 -8.75577447 -3.11316426 0 0 Z " fill="#0B0B0B" transform="translate(627.4609375,923.875)"/>
<path d="M0 0 C2.31 0 4.62 0 7 0 C7.01458252 0.89307861 7.02916504 1.78615723 7.04418945 2.70629883 C7.10527077 6.02217278 7.17942478 9.33721899 7.26245117 12.65258789 C7.29569001 14.08704628 7.32372535 15.52163513 7.34643555 16.95629883 C7.38000271 19.01960807 7.43231413 21.08172303 7.48828125 23.14453125 C7.51446533 24.38565674 7.54064941 25.62678223 7.56762695 26.90551758 C7.75671561 29.95472495 7.75671561 29.95472495 9.32104492 31.9050293 C12.18990202 33.77602306 14.68329007 33.34310792 18 33 C21.82480484 31.30008674 23.48755637 29.86208835 25 26 C25.36504688 23.09900073 25.36504688 23.09900073 25.4140625 19.921875 C25.45273437 18.76171875 25.49140625 17.6015625 25.53125 16.40625 C25.57765625 14.59640625 25.57765625 14.59640625 25.625 12.75 C25.66367187 11.52796875 25.70234375 10.3059375 25.7421875 9.046875 C25.83642108 6.0314006 25.92203455 3.01593172 26 0 C27.99954746 -0.04254356 30.00041636 -0.04080783 32 0 C33 1 33 1 33.11352539 4.60180664 C33.11336625 6.20459856 33.10767063 7.8073956 33.09765625 9.41015625 C33.0962413 10.25219101 33.09482635 11.09422577 33.09336853 11.96177673 C33.08775263 14.66205335 33.07519748 17.36224828 33.0625 20.0625 C33.05748705 21.88867068 33.05292379 23.71484266 33.04882812 25.54101562 C33.03777804 30.02737542 33.02050279 34.51367384 33 39 C30.69 39 28.38 39 26 39 C25.67 38.01 25.34 37.02 25 36 C24.236875 36.66 23.47375 37.32 22.6875 38 C18.16534702 41.00760768 13.22178387 40.77589656 8 40 C3.87438524 37.97338222 1.591467 36.29632828 0 32 C-0.22705078 28.60839844 -0.22705078 28.60839844 -0.1953125 24.609375 C-0.1924826 23.90476135 -0.18965271 23.20014771 -0.18673706 22.47418213 C-0.17557801 20.2326124 -0.15048193 17.99144814 -0.125 15.75 C-0.11496464 14.22656829 -0.10583976 12.70313029 -0.09765625 11.1796875 C-0.07565291 7.45299414 -0.04115272 3.72653667 0 0 Z " fill="#101010" transform="translate(298,924)"/>
<path d="M0 0 C3.34252226 1.93866291 5.11826348 3.5214521 7.125 6.8125 C7.125 8.1325 7.125 9.4525 7.125 10.8125 C4.815 10.8125 2.505 10.8125 0.125 10.8125 C-0.16375 10.173125 -0.4525 9.53375 -0.75 8.875 C-1.70323451 6.66043921 -1.70323451 6.66043921 -3.875 5.8125 C-5.37149362 5.69244547 -6.87374793 5.63718549 -8.375 5.625 C-9.1690625 5.61082031 -9.963125 5.59664062 -10.78125 5.58203125 C-13.09533317 5.61583697 -13.09533317 5.61583697 -14.875 7.8125 C-14.875 9.1325 -14.875 10.4525 -14.875 11.8125 C-14.32038086 11.96807373 -13.76576172 12.12364746 -13.19433594 12.28393555 C-10.6656261 13.00442219 -8.1456575 13.75185129 -5.625 14.5 C-4.31595703 14.86641602 -4.31595703 14.86641602 -2.98046875 15.24023438 C2.10221711 16.77279996 5.40761935 17.93918098 8.125 22.8125 C9.04714043 26.64628068 8.44854754 30.00363114 7 33.625 C3.87064479 37.27591441 0.4193808 38.64923151 -4.3125 39.24609375 C-15.11923293 39.25794324 -15.11923293 39.25794324 -18.625 37.0625 C-21.66179793 34.02570207 -22.80424132 32.36919096 -23 28.0625 C-22.938125 26.94875 -22.938125 26.94875 -22.875 25.8125 C-20.125 25.4375 -20.125 25.4375 -16.875 25.8125 C-16.318125 26.8025 -15.76125 27.7925 -15.1875 28.8125 C-13.22551434 32.05284036 -13.22551434 32.05284036 -10.25390625 32.28125 C-7.38495278 32.31109607 -4.70697986 32.28000144 -1.875 31.8125 C0.41228734 29.97366119 0.41228734 29.97366119 0.25 27.1875 C0.20875 26.40375 0.1675 25.62 0.125 24.8125 C-0.97199219 24.48636719 -2.06898438 24.16023437 -3.19921875 23.82421875 C-4.65375318 23.38316637 -6.10817435 22.94174034 -7.5625 22.5 C-8.28373047 22.28666016 -9.00496094 22.07332031 -9.74804688 21.85351562 C-13.80952925 20.61096166 -17.37696965 19.30727117 -20.875 16.8125 C-22.60625121 13.34999757 -22.35315224 9.59841771 -21.875 5.8125 C-17.11166055 -2.18310551 -8.33305528 -3.16764088 0 0 Z " fill="#0B0B0B" transform="translate(780.875,852.1875)"/>
<path d="M0 0 C2.79863914 1.82236967 4.0381248 2.87649079 5.6875 5.75 C6.02807617 9.14160156 6.02807617 9.14160156 5.98046875 13.140625 C5.97622391 13.84523865 5.97197906 14.54985229 5.96760559 15.27581787 C5.95086538 17.51760712 5.91322404 19.75848431 5.875 22 C5.85994704 23.52342448 5.8462597 25.04686311 5.83398438 26.5703125 C5.80097791 30.29716941 5.74922854 34.02349563 5.6875 37.75 C3.3775 37.75 1.0675 37.75 -1.3125 37.75 C-1.32708252 36.85168457 -1.34166504 35.95336914 -1.35668945 35.02783203 C-1.41769697 31.6989341 -1.49183628 28.37087117 -1.57495117 25.04248047 C-1.60823178 23.60118658 -1.63625404 22.15976137 -1.65893555 20.71826172 C-1.6924262 18.64754203 -1.744733 16.57802907 -1.80078125 14.5078125 C-1.82696533 13.2614502 -1.85314941 12.01508789 -1.88012695 10.73095703 C-2.02281006 9.74724121 -2.16549316 8.76352539 -2.3125 7.75 C-6.0498856 5.2584096 -7.88581583 5.29206715 -12.3125 5.75 C-15.06579021 7.54562405 -16.83877461 8.80254922 -18.3125 11.75 C-18.46628852 13.70774069 -18.56221463 15.67017352 -18.62890625 17.6328125 C-18.67080078 18.79941406 -18.71269531 19.96601562 -18.75585938 21.16796875 C-18.81483398 23.00294922 -18.81483398 23.00294922 -18.875 24.875 C-18.91818359 26.10605469 -18.96136719 27.33710937 -19.00585938 28.60546875 C-19.11218704 31.65352853 -19.21421781 34.7016719 -19.3125 37.75 C-21.6225 37.75 -23.9325 37.75 -26.3125 37.75 C-26.3125 25.21 -26.3125 12.67 -26.3125 -0.25 C-24.0025 -0.25 -21.6925 -0.25 -19.3125 -0.25 C-18.9825 0.74 -18.6525 1.73 -18.3125 2.75 C-17.3225 2.09 -16.3325 1.43 -15.3125 0.75 C-10.06330889 -2.22984384 -5.70526644 -2.15293073 0 0 Z " fill="#111111" transform="translate(664.3125,852.25)"/>
<path d="M0 0 C2.31 0 4.62 0 7 0 C7.01981934 0.86278564 7.03963867 1.72557129 7.06005859 2.61450195 C7.13819644 5.81836956 7.22489082 9.02185894 7.31738281 12.2253418 C7.3556435 13.61131907 7.39050156 14.99739465 7.421875 16.38354492 C7.46758699 18.3770164 7.52658925 20.37016914 7.5859375 22.36328125 C7.6173584 23.56251221 7.6487793 24.76174316 7.68115234 25.99731445 C7.78429494 29.17882706 7.78429494 29.17882706 10 32 C12.0249147 32.55306883 12.0249147 32.55306883 14.3125 32.5 C15.45138672 32.54640625 15.45138672 32.54640625 16.61328125 32.59375 C19.29647965 31.92624402 21.11413248 31.01733754 22.99829102 28.96142578 C25.41349623 24.23226207 24.78835423 18.3734753 24.8125 13.1875 C24.83763672 11.92228516 24.86277344 10.65707031 24.88867188 9.35351562 C24.94750491 6.23536457 24.98381506 3.11861633 25 0 C27.31 0 29.62 0 32 0 C32 12.54 32 25.08 32 38 C30.02 38 28.04 38 26 38 C25.67 37.01 25.34 36.02 25 35 C24.401875 35.474375 23.80375 35.94875 23.1875 36.4375 C18.35164449 39.89168251 12.71517474 39.61084591 7 39 C3.33219668 36.90411239 1.50570486 34.8991568 0 31 C-0.22705078 27.70019531 -0.22705078 27.70019531 -0.1953125 23.828125 C-0.1924826 23.1457074 -0.18965271 22.46328979 -0.18673706 21.76019287 C-0.17558098 19.58994693 -0.15048557 17.42012029 -0.125 15.25 C-0.11496426 13.77474556 -0.10583944 12.29948463 -0.09765625 10.82421875 C-0.07565687 7.21601058 -0.04115883 3.60804625 0 0 Z " fill="#0C0C0C" transform="translate(144,852)"/>
<path d="M0 0 C3.17574563 1.74068066 4.96891017 3.1760215 6.9921875 6.2109375 C7.16330752 8.68150573 7.22471874 11.03597671 7.1875 13.50390625 C7.1846701 14.20993484 7.18184021 14.91596344 7.17892456 15.64338684 C7.16774214 17.89524383 7.1426417 20.14670102 7.1171875 22.3984375 C7.10715517 23.92642654 7.09802976 25.45442183 7.08984375 26.98242188 C7.06780922 30.72541413 7.03329317 34.46810806 6.9921875 38.2109375 C4.6821875 38.2109375 2.3721875 38.2109375 -0.0078125 38.2109375 C-0.02239502 37.34815186 -0.03697754 36.48536621 -0.05200195 35.59643555 C-0.11309004 32.39244103 -0.18724799 29.18909125 -0.27026367 25.9855957 C-0.30349799 24.59964373 -0.33153476 23.21355689 -0.35424805 21.82739258 C-0.38781867 19.83386907 -0.4416925 17.84072009 -0.49609375 15.84765625 C-0.52227783 14.64842529 -0.54846191 13.44919434 -0.57543945 12.21362305 C-0.77409462 9.24538865 -0.77409462 9.24538865 -2.32495117 7.31567383 C-5.1513908 5.46022057 -7.73393062 5.92375488 -11.0078125 6.2109375 C-14.38812839 7.39861605 -14.93998067 8.10918975 -17.0078125 11.2109375 C-17.37668439 14.11737994 -17.37668439 14.11737994 -17.421875 17.41015625 C-17.46054687 18.61865234 -17.49921875 19.82714844 -17.5390625 21.07226562 C-17.58546875 22.9662207 -17.58546875 22.9662207 -17.6328125 24.8984375 C-17.69082031 26.80979492 -17.69082031 26.80979492 -17.75 28.75976562 C-17.84438936 31.91001042 -17.9299708 35.06024741 -18.0078125 38.2109375 C-20.3178125 38.2109375 -22.6278125 38.2109375 -25.0078125 38.2109375 C-25.0078125 25.6709375 -25.0078125 13.1309375 -25.0078125 0.2109375 C-22.6978125 0.2109375 -20.3878125 0.2109375 -18.0078125 0.2109375 C-17.6778125 1.2009375 -17.3478125 2.1909375 -17.0078125 3.2109375 C-16.4096875 2.7365625 -15.8115625 2.2621875 -15.1953125 1.7734375 C-10.72145329 -1.42217622 -5.10728824 -2.0071444 0 0 Z " fill="#0A0A0A" transform="translate(744.0078125,851.7890625)"/>
<path d="M0 0 C2.79863914 1.82236967 4.0381248 2.87649079 5.6875 5.75 C6.02807617 9.14160156 6.02807617 9.14160156 5.98046875 13.140625 C5.97622391 13.84523865 5.97197906 14.54985229 5.96760559 15.27581787 C5.95086538 17.51760712 5.91322404 19.75848431 5.875 22 C5.85994704 23.52342448 5.8462597 25.04686311 5.83398438 26.5703125 C5.80097791 30.29716941 5.74922854 34.02349563 5.6875 37.75 C3.7075 37.75 1.7275 37.75 -0.3125 37.75 C-0.33231934 36.95303711 -0.35213867 36.15607422 -0.37255859 35.33496094 C-0.46783248 31.72297528 -0.57750307 28.11156601 -0.6875 24.5 C-0.7184375 23.24574219 -0.749375 21.99148438 -0.78125 20.69921875 C-0.81992188 19.49394531 -0.85859375 18.28867187 -0.8984375 17.046875 C-0.9298584 15.93666992 -0.9612793 14.82646484 -0.99365234 13.68261719 C-1.30339737 10.8337219 -1.74712483 9.1269224 -3.3125 6.75 C-6.41298928 5.19975536 -8.89144218 5.46007985 -12.3125 5.75 C-15.06579021 7.54562405 -16.83877461 8.80254922 -18.3125 11.75 C-18.46628852 13.70774069 -18.56221463 15.67017352 -18.62890625 17.6328125 C-18.67080078 18.79941406 -18.71269531 19.96601562 -18.75585938 21.16796875 C-18.81483398 23.00294922 -18.81483398 23.00294922 -18.875 24.875 C-18.91818359 26.10605469 -18.96136719 27.33710937 -19.00585938 28.60546875 C-19.11218704 31.65352853 -19.21421781 34.7016719 -19.3125 37.75 C-21.6225 37.75 -23.9325 37.75 -26.3125 37.75 C-26.3125 25.21 -26.3125 12.67 -26.3125 -0.25 C-24.0025 -0.25 -21.6925 -0.25 -19.3125 -0.25 C-18.9825 0.74 -18.6525 1.73 -18.3125 2.75 C-17.3225 2.09 -16.3325 1.43 -15.3125 0.75 C-10.06330889 -2.22984384 -5.70526644 -2.15293073 0 0 Z " fill="#0C0C0C" transform="translate(211.3125,852.25)"/>
<path d="M0 0 C2.74369447 2.01906184 4.22096982 4.25443963 5.73046875 7.2734375 C5.73046875 8.5934375 5.73046875 9.9134375 5.73046875 11.2734375 C3.42046875 11.2734375 1.11046875 11.2734375 -1.26953125 11.2734375 C-1.51703125 10.4896875 -1.76453125 9.7059375 -2.01953125 8.8984375 C-3.04022149 6.24924175 -3.04022149 6.24924175 -4.95703125 4.9609375 C-8.29510426 3.96853741 -10.80241661 3.84765149 -14.26953125 4.2734375 C-16.89969286 6.4461797 -18.74290019 8.22017538 -20.26953125 11.2734375 C-21.1738116 20.00105094 -21.1738116 20.00105094 -18.39453125 28.0234375 C-15.62693866 30.95382965 -14.96466815 31.24769169 -10.89453125 31.3984375 C-8.08930859 31.30170568 -5.90917909 31.11812481 -3.26953125 30.2734375 C-2.27953125 26.8084375 -2.27953125 26.8084375 -1.26953125 23.2734375 C1.04046875 23.2734375 3.35046875 23.2734375 5.73046875 23.2734375 C5.37653533 29.17232777 4.01611336 32.17826598 -0.26953125 36.2734375 C-5.46996585 38.99747467 -11.52887139 38.95786789 -17.26953125 38.2734375 C-22.18959192 35.94759064 -24.5818456 32.95200142 -27.26953125 28.2734375 C-28.36949083 24.97355875 -28.43700716 22.43311463 -28.45703125 18.9609375 C-28.47121094 17.85105469 -28.48539063 16.74117187 -28.5 15.59765625 C-28.00975756 8.52653221 -25.29996416 4.03977268 -20.26953125 -0.7265625 C-14.00957638 -4.6178858 -6.17080062 -3.47338478 0 0 Z " fill="#090909" transform="translate(753.26953125,925.7265625)"/>
<path d="M0 0 C3.96261425 2.2861236 5.73306684 4.06146491 8.25 7.875 C8.5625 10.75 8.5625 10.75 8.25 12.875 C5.5 13.25 5.5 13.25 2.25 12.875 C0.0625 9.9375 0.0625 9.9375 -1.75 6.875 C-5.38782632 5.66239123 -7.92735999 5.47955448 -11.75 5.875 C-14.90954305 8.41637159 -16.46540886 10.02122659 -17.75 13.875 C-18.33466111 20.3062722 -17.83287476 25.1835389 -14.75 30.875 C-12.76280395 33.30227246 -12.76280395 33.30227246 -8.875 33.125 C-4.49168425 32.9895712 -4.49168425 32.9895712 -0.75 30.875 C1.01727858 27.8415533 1.01727858 27.8415533 2.25 24.875 C4.23 24.875 6.21 24.875 8.25 24.875 C7.88015313 31.03911455 6.54761357 33.67505946 2.25 37.875 C-3.25253383 40.61225367 -8.73522911 40.49609047 -14.75 39.875 C-20.15440037 37.71323985 -22.48648709 33.93191179 -24.83203125 28.79296875 C-26.92856124 22.12867981 -27.0054617 14.81653883 -24.125 8.375 C-18.62859504 -0.87695568 -9.92679324 -2.97803797 0 0 Z " fill="#090909" transform="translate(363.75,924.125)"/>
<path d="M0 0 C4.25057194 1.79468593 5.95278291 3.92863305 8 8 C8.87179059 14.35039616 8.84210429 20.6484976 5 26 C3.09550515 28.19749406 1.78298134 28.88101034 -1.08203125 29.31640625 C-5.11904505 29.52394759 -7.40932523 29.35189135 -10.9375 27.25 C-15.52647847 22.24384166 -15.42067288 17.75534888 -15.32421875 11.14453125 C-14.8825329 6.86071065 -13.93212141 5.0996712 -11 2 C-7.28612182 -0.47591878 -4.30417439 -0.53907468 0 0 Z " fill="#F9F9F9" transform="translate(517,929)"/>
<path d="M0 0 C3.42007704 1.71003852 5.42991816 2.84812231 7.140625 6.3046875 C9.02159743 12.20410103 8.99597677 18.0423905 6.1875 23.5625 C3.86853621 26.14648822 2.17527547 27.7928328 -1.3046875 28.40625 C-8.0865896 28.65361421 -8.0865896 28.65361421 -10.73046875 26.76171875 C-15.00109214 21.71461838 -15.33927114 17.06066356 -15.2890625 10.734375 C-14.88896865 6.94970345 -13.51679356 4.80442711 -11 2 C-7.28753662 -0.47497559 -4.30406538 -0.65903459 0 0 Z " fill="#F9F9F9" transform="translate(406,857)"/>
<path d="M0 0 C3.68254835 1.42280277 4.79222833 2.64893752 6.8125 6.0625 C8.94951316 11.82632978 8.83345897 17.70798784 6.75 23.4375 C3.88425047 27.63377609 3.88425047 27.63377609 1 29 C-2.10988158 29.52512072 -4.89781102 29.6027426 -8 29 C-11.28175318 26.47031526 -12.69243777 24.92268669 -14 21 C-15.00676527 8.63824289 -15.00676527 8.63824289 -12.1875 4.3125 C-8.19573658 0.09263581 -5.70967532 -0.49221339 0 0 Z " fill="#FAFAFA" transform="translate(664,929)"/>
<path d="M0 0 C4.0056193 2.11617623 6.380712 3.76608184 8 8 C8.68737453 14.40954432 8.88390842 20.59027042 5 26 C3.09872022 28.19378437 1.7676888 28.8703715 -1.08203125 29.3515625 C-5.49715648 29.62979593 -7.40296916 29.46021127 -11 26.6875 C-15.13471461 21.13147725 -14.60593296 14.66526253 -14 8 C-11.52052891 1.34716173 -6.81109482 -0.69265371 0 0 Z " fill="#FAFAFA" transform="translate(274,929)"/>
<path d="M0 0 C3.70613474 1.6846067 5.90203411 3.52709602 8 7 C8.86406006 13.55669104 9.0528199 20.49974442 5 26 C2.40010102 28.88877665 1.0094552 28.99894942 -2.9375 29.4375 C-6.02759082 29.3109041 -7.09298311 28.94542296 -9.875 27.3125 C-14.07174511 22.74545385 -14.38840436 18.52045506 -14.25390625 12.50390625 C-13.79000689 7.92914484 -12.37665151 4.52414989 -9.25 1.0625 C-5.98872559 -0.47754625 -3.56385197 -0.37514231 0 0 Z " fill="#FAFAFA" transform="translate(123,929)"/>
<path d="M0 0 C3.34684149 1.36916243 4.72482511 2.61095964 6.8125 5.5625 C8.81724793 11.3657177 8.85056758 16.66093916 6.75 22.4375 C3.88425047 26.63377609 3.88425047 26.63377609 1 28 C-2.10942544 28.5250437 -4.8989438 28.60805024 -8 28 C-10.75569447 25.81840855 -12.43588747 24.12822506 -14 21 C-15.05533009 9.24060755 -15.05533009 9.24060755 -12.953125 4.77734375 C-9.02100324 0.0703627 -5.94096639 -0.40277738 0 0 Z " fill="#F9F9F9" transform="translate(246,857)"/>
<path d="M0 0 C2.31 0 4.62 0 7 0 C7 3.3 7 6.6 7 10 C8.98 10 10.96 10 13 10 C13 11.98 13 13.96 13 16 C11.02 16 9.04 16 7 16 C7.33 24.58 7.66 33.16 8 42 C9.65 42.33 11.3 42.66 13 43 C13 44.98 13 46.96 13 49 C11.58506449 49.10884119 10.16767057 49.18597617 8.75 49.25 C7.96109375 49.29640625 7.1721875 49.3428125 6.359375 49.390625 C3.04821174 48.84241916 2.05516057 47.62401876 0 45 C-0.45410156 41.88378906 -0.45410156 41.88378906 -0.390625 38.265625 C-0.37773438 36.97011719 -0.36484375 35.67460938 -0.3515625 34.33984375 C-0.31814366 32.97655176 -0.28428391 31.61327051 -0.25 30.25 C-0.22992707 28.87111936 -0.21167767 27.49221088 -0.1953125 26.11328125 C-0.14815448 22.74148256 -0.08234538 19.37109313 0 16 C-1.98 16 -3.96 16 -6 16 C-6 14.02 -6 12.04 -6 10 C-4.02 10 -2.04 10 0 10 C0 6.7 0 3.4 0 0 Z " fill="#121212" transform="translate(540,842)"/>
<path d="M0 0 C2.31 0 4.62 0 7 0 C7.33 0.99 7.66 1.98 8 3 C8.515625 2.505 9.03125 2.01 9.5625 1.5 C12.80680017 -0.49649241 15.26217334 -0.21564385 19 0 C19 2.31 19 4.62 19 7 C18.06027344 7.16435547 18.06027344 7.16435547 17.1015625 7.33203125 C15.87566406 7.56986328 15.87566406 7.56986328 14.625 7.8125 C13.40683594 8.03873047 13.40683594 8.03873047 12.1640625 8.26953125 C9.64179359 8.87544942 9.64179359 8.87544942 8 12 C7.63155492 14.8086043 7.63155492 14.8086043 7.5859375 17.98046875 C7.54726563 19.14384766 7.50859375 20.30722656 7.46875 21.50585938 C7.4378125 22.72080078 7.406875 23.93574219 7.375 25.1875 C7.33632813 26.41404297 7.29765625 27.64058594 7.2578125 28.90429688 C7.16343897 31.93604656 7.07785451 34.96778841 7 38 C4.69 38 2.38 38 0 38 C0 25.46 0 12.92 0 0 Z " fill="#0C0C0C" transform="translate(598,852)"/>
<path d="M0 0 C1.98 0 3.96 0 6 0 C6 17.49 6 34.98 6 53 C4.02 53 2.04 53 0 53 C0 35.51 0 18.02 0 0 Z " fill="#000000" transform="translate(822,910)"/>
<path d="M0 0 C2.31 0 4.62 0 7 0 C7 12.54 7 25.08 7 38 C4.69 38 2.38 38 0 38 C0 25.46 0 12.92 0 0 Z " fill="#0A0A0A" transform="translate(622,852)"/>
<path d="M0 0 C1.98 0 3.96 0 6 0 C6 12.54 6 25.08 6 38 C4.02 38 2.04 38 0 38 C0 25.46 0 12.92 0 0 Z " fill="#000000" transform="translate(766,925)"/>
<path d="M0 0 C0.61364554 7.24101736 0.61364554 7.24101736 -2.375 10.9375 C-5.68217164 13.535992 -7.31230888 14.16871545 -11.4375 14.25 C-12.21996094 14.27578125 -13.00242187 14.3015625 -13.80859375 14.328125 C-16.52114994 13.92196685 -17.36620852 13.16464487 -19 11 C-19.41115978 8.25893483 -19.52831538 6.73336086 -17.8828125 4.44921875 C-15.24706681 2.42046014 -12.7383621 2.00174599 -9.5 1.3125 C-8.3553125 1.06113281 -7.210625 0.80976562 -6.03125 0.55078125 C-3 0 -3 0 0 0 Z " fill="#F4F4F4" transform="translate(805,944)"/>
<path d="M0 0 C0.48867825 7.20800421 0.48867825 7.20800421 -1.8125 10.9375 C-4.91518461 13.86288834 -7.45412649 14.15365837 -11.5625 14.1875 C-12.74005859 14.20876953 -12.74005859 14.20876953 -13.94140625 14.23046875 C-16 14 -16 14 -18 12 C-18.375 8.5625 -18.375 8.5625 -18 5 C-15.09390525 2.14132405 -12.39938768 1.44316784 -8.4375 0.8125 C-7.48746094 0.65394531 -6.53742188 0.49539063 -5.55859375 0.33203125 C-3 0 -3 0 0 0 Z " fill="#F7F7F7" transform="translate(480,944)"/>
<path d="M0 0 C0.29254918 4.97333608 0.16504232 8.0436971 -3 12 C-5.9086167 13.78129417 -8.16771419 14.29526758 -11.5625 14.3125 C-12.70912109 14.33763672 -12.70912109 14.33763672 -13.87890625 14.36328125 C-16.5233136 13.9103717 -17.3918613 13.11225741 -19 11 C-19.41115978 8.25893483 -19.52831538 6.73336086 -17.8828125 4.44921875 C-15.24706681 2.42046014 -12.7383621 2.00174599 -9.5 1.3125 C-8.3553125 1.06113281 -7.210625 0.80976562 -6.03125 0.55078125 C-3 0 -3 0 0 0 Z " fill="#F6F6F6" transform="translate(402,944)"/>
<path d="M0 0 C0.31658501 4.03645882 0.4210379 6.32333195 -1.75 9.8125 C-4.87583039 12.85150177 -6.65299848 13.85968734 -11 14.3125 C-14.43104521 13.95509946 -15.77737164 13.65005689 -18 11 C-18.4375 7.4375 -18.4375 7.4375 -18 4 C-14.91545869 1.94363913 -13.15190326 1.48865646 -9.5625 0.875 C-8.61503906 0.70742188 -7.66757812 0.53984375 -6.69140625 0.3671875 C-4 0 -4 0 0 0 Z " fill="#F4F4F4" transform="translate(582,872)"/>
<path d="M0 0 C0.60077519 7.08914729 0.60077519 7.08914729 -1.9375 10.9375 C-5.89189404 13.60066334 -9.24257856 14.4526651 -14 14 C-16.5625 12.375 -16.5625 12.375 -18 10 C-18.4375 7.4375 -18.4375 7.4375 -18 5 C-16.23531211 2.58327488 -15.1199353 2.03114986 -12.1875 1.26953125 C-11.135625 1.11871094 -10.08375 0.96789062 -9 0.8125 C-7.948125 0.65394531 -6.89625 0.49539063 -5.8125 0.33203125 C-3 0 -3 0 0 0 Z " fill="#F5F5F5" transform="translate(522,872)"/>
<path d="M0 0 C0.59456689 7.01588929 0.59456689 7.01588929 -1.8125 11 C-6.36769434 13.85816116 -10.739203 13.80479181 -16 13 C-18 11 -18 11 -18.3125 8.0625 C-18 5 -18 5 -16.8203125 3.3828125 C-14.44413335 1.5777322 -12.498304 1.27856386 -9.5625 0.8125 C-8.61503906 0.65394531 -7.66757812 0.49539063 -6.69140625 0.33203125 C-4 0 -4 0 0 0 Z " fill="#F5F5F5" transform="translate(292,872)"/>
<path d="M0 0 C0.76986755 8.00662252 0.76986755 8.00662252 -1.9375 11.5 C-5.81646635 13.39990189 -9.65502871 14.44751577 -14 14 C-15.75390625 12.7265625 -15.75390625 12.7265625 -17 11 C-17.3125 7.4375 -17.3125 7.4375 -17 4 C-14.52000933 1.52000933 -13.04581838 1.45277898 -9.625 0.875 C-8.19027344 0.62363281 -8.19027344 0.62363281 -6.7265625 0.3671875 C-4 0 -4 0 0 0 Z " fill="#F5F5F5" transform="translate(369,872)"/>
<path d="M0 0 C2.85432986 0.5315756 4.69665618 1.52040803 6.9296875 3.359375 C8.96640379 6.36595618 8.9296875 7.55034096 8.9296875 11.359375 C1.9996875 11.359375 -4.9303125 11.359375 -12.0703125 11.359375 C-10.7657918 3.53225078 -8.17231599 -0.55510071 0 0 Z " fill="#F0F0F0" transform="translate(813.0703125,856.640625)"/>
<path d="M0 0 C3.5386994 1.65139305 4.81070153 2.71605229 7 6 C7 7.65 7 9.3 7 11 C0.4 11 -6.2 11 -13 11 C-12 4 -12 4 -9.875 1.5625 C-6.24560408 -0.40999778 -4.08210558 -0.5102632 0 0 Z " fill="#F2F2F2" transform="translate(698,857)"/>
<path d="M0 0 C3.375 2.125 3.375 2.125 6 5 C6.33 6.98 6.66 8.96 7 11 C0.07 11 -6.86 11 -14 11 C-13 5 -13 5 -10.375 2.125 C-6.38911725 -0.38462988 -4.62103168 -0.82518423 0 0 Z " fill="#F7F7F7" transform="translate(706,929)"/>
<path d="M0 0 C4.88986709 0.32599114 7.34057634 1.84057634 10.75 5.25 C10.75 7.23 10.75 9.21 10.75 11.25 C4.15 11.25 -2.45 11.25 -9.25 11.25 C-9.25 6.25 -9.25 6.25 -6.8125 3.5 C-5.966875 2.7575 -5.12125 2.015 -4.25 1.25 C-3.25 0.25 -3.25 0.25 0 0 Z " fill="#F6F6F6" transform="translate(162.25,928.75)"/>
<path d="M0 0 C0.99 0 1.98 0 3 0 C2.65118936 2.58119871 2.34438419 4.51374325 0.82421875 6.66015625 C-1.78385066 8.57571901 -3.68037822 8.26043284 -6.875 8.125 C-10.7885078 7.97787565 -14.18351623 8.08460721 -18 9 C-16.375 3.25 -16.375 3.25 -13 1 C-10.37109375 1.09375 -10.37109375 1.09375 -7.4375 1.5 C-4.57823888 1.94463325 -4.57823888 1.94463325 -2 2 C-1.34 1.34 -0.68 0.68 0 0 Z " fill="#171717" transform="translate(369,837)"/>
<path d="M0 0 C1.32 0 2.64 0 4 0 C3.45738189 3.79832675 2.04889927 5.69272487 -1 8 C-4.17026161 8.33726187 -6.64794429 8.08001266 -9.75 7.375 C-10.4925 7.25125 -11.235 7.1275 -12 7 C-12.66 7.66 -13.32 8.32 -14 9 C-14.99 9 -15.98 9 -17 9 C-16.65415128 6.4407195 -16.31949609 4.47924414 -14.875 2.3125 C-12.00404632 0.30283243 -9.72597708 0.94073517 -6.3125 1.3125 C-5.13300781 1.43238281 -3.95351563 1.55226563 -2.73828125 1.67578125 C-1.38283203 1.83626953 -1.38283203 1.83626953 0 2 C0 1.34 0 0.68 0 0 Z " fill="#131313" transform="translate(479,909)"/>
<path d="M0 0 C2.31 0 4.62 0 7 0 C7 2.64 7 5.28 7 8 C4.69 8 2.38 8 0 8 C0 5.36 0 2.72 0 0 Z " fill="#181818" transform="translate(622,838)"/>
<path d="M0 0 C1.98 0 3.96 0 6 0 C6 2.31 6 4.62 6 7 C4.02 7 2.04 7 0 7 C0 4.69 0 2.38 0 0 Z " fill="#000000" transform="translate(766,910)"/>
</svg>
