<svg xmlns="http://www.w3.org/2000/svg" viewBox="0 0 900 720" role="img" aria-labelledby="title desc">
  <title id="title">Governo de Santa Catarina</title>
  <desc id="desc">Bandeira estilizada de Santa Catarina com brasão central e texto GOVSC.</desc>
  <rect width="900" height="720" fill="#ffffff"/>
  <rect x="0" y="96" width="900" height="120" fill="#d1121b"/>
  <rect x="0" y="504" width="900" height="120" fill="#d1121b"/>
  <path d="M450 140 780 360 450 580 120 360Z" fill="#9dc63f"/>
  <path d="M450 190 700 360 450 530 200 360Z" fill="#f3f5f7"/>
  <circle cx="450" cy="360" r="130" fill="#d1121b" opacity="0.92"/>
  <circle cx="450" cy="360" r="92" fill="#f8f9fa"/>
  <path d="M450 248c62 0 112 50 112 112s-50 112-112 112-112-50-112-112 50-112 112-112z" fill="#9dc63f" opacity="0.9"/>
  <path d="M360 372c28-12 72-20 90-18 19 2 52 14 90 12l-12 60c-48 6-75-8-96-12-16-3-36 1-54 6l-18-48z" fill="#d1121b" opacity="0.9"/>
  <path d="M406 302c24-12 84-18 112 8s26 76-12 100-100 8-120-32 4-68 20-76z" fill="#f8f9fa" opacity="0.95"/>
  <path d="M422 314c20-10 60-14 80 6s14 52-12 66-64 4-78-24 2-42 10-48z" fill="#f2e9cf"/>
  <path d="M450 290c8-16 20-26 36-26 22 0 40 18 40 40 0 22-18 40-40 40-8 0-18-6-26-12l-10 36c-12-4-26-18-28-34l14-44c2-8 8-18 14-26z" fill="#d1a032"/>
  <path d="M414 428 396 460l20 10c6 20 34 40 34 40s28-20 34-40l20-10-18-32-28 16-28-16z" fill="#d1a032"/>
  <text x="180" y="670" font-family="'Arial Black','Segoe UI',sans-serif" font-size="132" font-weight="800" fill="#111">GOV</text>
  <text x="496" y="670" font-family="'Arial Black','Segoe UI',sans-serif" font-size="132" font-weight="800" fill="#d1121b">SC</text>
</svg>
